<?xml version="1.0" encoding="iso-8859-1"?>
<!-- Generator: Adobe Illustrator 19.0.0, SVG Export Plug-In . SVG Version: 6.00 Build 0)  -->
<svg version="1.1" id="Layer_1" xmlns="http://www.w3.org/2000/svg" xmlns:xlink="http://www.w3.org/1999/xlink" x="0px" y="0px"
	 viewBox="0 0 512 512" style="enable-background:new 0 0 512 512;" xml:space="preserve">
<g>
	<rect x="246.266" y="150.061" style="fill:#5CB0FF;" width="19.483" height="185.089"/>
	<circle style="fill:#5CB0FF;" cx="256.008" cy="403.341" r="9.742"/>
</g>
<path style="fill:#D0E8FF;" d="M267.987,71.515c-3.539-5.798-7.906-9.128-11.987-9.128c-4.081,0.005-8.448,3.33-11.987,9.123v0.005
	L23.088,433.588c-3.415,5.598-4.452,10.731-2.778,13.718c1.665,2.968,6.545,4.742,13.043,4.742h445.285
	c6.507,0,11.378-1.774,13.052-4.742c1.674-2.992,0.637-8.12-2.778-13.718L267.987,71.515z M256,432.565
	c-16.115,0-29.225-13.109-29.225-29.225c0-16.115,13.109-29.225,29.225-29.225s29.225,13.109,29.225,29.225
	C285.225,419.456,272.115,432.565,256,432.565z M285.225,344.892c0,5.38-4.357,9.742-9.742,9.742h-38.966
	c-5.384,0-9.742-4.362-9.742-9.742V140.319c0-5.38,4.357-9.742,9.742-9.742h38.966c5.384,0,9.742,4.362,9.742,9.742V344.892z"/>
<g>
	<path style="fill:#1C71DA;" d="M505.541,423.438L284.616,61.364c-7.154-11.73-17.59-18.46-28.625-18.46
		c-11.026,0.005-21.452,6.735-28.607,18.465v-0.005L6.459,423.438c-7.354,12.049-8.467,23.912-3.139,33.406
		c5.318,9.47,15.982,14.688,30.033,14.688h445.285c14.051,0,24.725-5.218,30.043-14.693
		C514.008,447.344,512.895,435.481,505.541,423.438z M491.69,447.306c-1.674,2.968-6.545,4.742-13.052,4.742H33.353
		c-6.498,0-11.378-1.774-13.043-4.742c-1.674-2.987-0.637-8.12,2.778-13.718L244.013,71.515V71.51
		c3.539-5.794,7.906-9.118,11.987-9.123c4.081,0,8.448,3.33,11.987,9.128l220.925,362.073
		C492.328,439.187,493.364,444.314,491.69,447.306z"/>
	<path style="fill:#1C71DA;" d="M275.483,130.578h-38.966c-5.384,0-9.742,4.362-9.742,9.742v204.572c0,5.38,4.357,9.742,9.742,9.742
		h38.966c5.384,0,9.742-4.362,9.742-9.742V140.319C285.225,134.939,280.868,130.578,275.483,130.578z M265.742,335.15h-19.483
		V150.061h19.483V335.15z"/>
	<path style="fill:#1C71DA;" d="M256,374.116c-16.115,0-29.225,13.109-29.225,29.225c0,16.115,13.109,29.225,29.225,29.225
		s29.225-13.109,29.225-29.225C285.225,387.225,272.115,374.116,256,374.116z M256,413.082c-5.375,0-9.742-4.371-9.742-9.742
		c0-5.37,4.367-9.742,9.742-9.742c5.375,0,9.742,4.371,9.742,9.742C265.742,408.711,261.375,413.082,256,413.082z"/>
	<path style="fill:#1C71DA;" d="M382.64,481.273H129.36c-5.384,0-9.742,4.362-9.742,9.742s4.357,9.742,9.742,9.742h253.28
		c5.384,0,9.742-4.362,9.742-9.742S388.025,481.273,382.64,481.273z"/>
</g>
<g>
	<path style="fill:#FF5D5D;" d="M432.601,225.558c-2.492,0-4.985-0.951-6.888-2.853c-3.805-3.805-3.805-9.973,0-13.777
		l34.443-34.441c3.8-3.803,9.97-3.803,13.775,0c3.805,3.805,3.805,9.973,0,13.777l-34.443,34.441
		C437.588,224.606,435.094,225.558,432.601,225.558z"/>
	<path style="fill:#FF5D5D;" d="M467.044,225.558c-2.492,0-4.985-0.951-6.888-2.853l-34.443-34.441
		c-3.805-3.804-3.805-9.972,0-13.777c3.8-3.803,9.97-3.803,13.775,0l34.443,34.441c3.805,3.804,3.805,9.972,0,13.777
		C472.031,224.606,469.536,225.558,467.044,225.558z"/>
</g>
<path style="fill:#00D40B;" d="M67.293,79.435c-18.8,0-34.095-15.295-34.095-34.095s15.295-34.095,34.095-34.095
	s34.095,15.295,34.095,34.095S86.094,79.435,67.293,79.435z M67.293,30.727c-8.058,0-14.612,6.555-14.612,14.612
	s6.555,14.612,14.612,14.612s14.612-6.555,14.612-14.612S75.351,30.727,67.293,30.727z"/>
<path style="fill:#FFC504;" d="M128.942,426.787L128.942,426.787c-2.583,0-5.061-1.026-6.888-2.854l-27.553-27.554
	c-3.805-3.804-3.805-9.971,0-13.776l27.553-27.553c3.8-3.803,9.97-3.803,13.775,0l27.555,27.553
	c1.827,1.827,2.854,4.305,2.854,6.889s-1.027,5.061-2.854,6.889l-27.555,27.554C134.003,425.761,131.524,426.787,128.942,426.787z
	 M115.166,389.492l13.775,13.777l13.777-13.777l-13.777-13.776L115.166,389.492z"/>
<g>
</g>
<g>
</g>
<g>
</g>
<g>
</g>
<g>
</g>
<g>
</g>
<g>
</g>
<g>
</g>
<g>
</g>
<g>
</g>
<g>
</g>
<g>
</g>
<g>
</g>
<g>
</g>
<g>
</g>
</svg>
